<mxfile host="app.diagrams.net" agent="Mozilla/5.0 (Windows NT 10.0; Win64; x64) AppleWebKit/537.36 (KHTML, like Gecko) Chrome/136.0.0.0 Safari/537.36" version="27.1.1">
  <diagram name="Página-1" id="xp2q2aUVwQcQfVOAKEfD">
    <mxGraphModel dx="2852" dy="2657" grid="1" gridSize="10" guides="1" tooltips="1" connect="1" arrows="1" fold="1" page="1" pageScale="1" pageWidth="827" pageHeight="1169" math="0" shadow="0">
      <root>
        <mxCell id="0" />
        <mxCell id="1" parent="0" />
        <mxCell id="eaBZAdcV0L5VPkEbtosH-1" value="" style="edgeStyle=orthogonalEdgeStyle;rounded=0;orthogonalLoop=1;jettySize=auto;html=1;" parent="1" source="eaBZAdcV0L5VPkEbtosH-2" target="eaBZAdcV0L5VPkEbtosH-4" edge="1">
          <mxGeometry relative="1" as="geometry" />
        </mxCell>
        <mxCell id="eaBZAdcV0L5VPkEbtosH-2" value="" style="ellipse;whiteSpace=wrap;html=1;aspect=fixed;fillColor=#d5e8d4;strokeColor=#82b366;" parent="1" vertex="1">
          <mxGeometry x="80" y="75" width="50" height="50" as="geometry" />
        </mxCell>
        <mxCell id="S1epC4yuxMinBEulNaxe-2" style="edgeStyle=orthogonalEdgeStyle;rounded=0;orthogonalLoop=1;jettySize=auto;html=1;entryX=0.5;entryY=0;entryDx=0;entryDy=0;" parent="1" source="eaBZAdcV0L5VPkEbtosH-4" target="S1epC4yuxMinBEulNaxe-1" edge="1">
          <mxGeometry relative="1" as="geometry" />
        </mxCell>
        <mxCell id="eaBZAdcV0L5VPkEbtosH-4" value="Registrar Incidente" style="whiteSpace=wrap;html=1;fillColor=#dae8fc;strokeColor=#6c8ebf;" parent="1" vertex="1">
          <mxGeometry x="190" y="70" width="120" height="60" as="geometry" />
        </mxCell>
        <mxCell id="eaBZAdcV0L5VPkEbtosH-22" style="edgeStyle=orthogonalEdgeStyle;rounded=0;orthogonalLoop=1;jettySize=auto;html=1;" parent="1" source="eaBZAdcV0L5VPkEbtosH-24" edge="1">
          <mxGeometry relative="1" as="geometry">
            <mxPoint x="1160" y="160" as="targetPoint" />
          </mxGeometry>
        </mxCell>
        <mxCell id="eaBZAdcV0L5VPkEbtosH-30" value="USUÁRIO" style="swimlane;horizontal=0;whiteSpace=wrap;html=1;startSize=23;" parent="1" vertex="1">
          <mxGeometry x="50" y="-40" width="2150" height="240" as="geometry" />
        </mxCell>
        <mxCell id="eaBZAdcV0L5VPkEbtosH-31" value="" style="rhombus;whiteSpace=wrap;html=1;rounded=0;fillColor=#fff2cc;strokeColor=#d6b656;" parent="eaBZAdcV0L5VPkEbtosH-30" vertex="1">
          <mxGeometry x="1070" y="120" width="80" height="80" as="geometry" />
        </mxCell>
        <mxCell id="eaBZAdcV0L5VPkEbtosH-32" value="Incidente resolvido?" style="text;html=1;align=center;verticalAlign=middle;whiteSpace=wrap;rounded=0;" parent="eaBZAdcV0L5VPkEbtosH-30" vertex="1">
          <mxGeometry x="1030" y="110" width="60" height="30" as="geometry" />
        </mxCell>
        <mxCell id="eaBZAdcV0L5VPkEbtosH-33" value="" style="edgeStyle=orthogonalEdgeStyle;rounded=0;orthogonalLoop=1;jettySize=auto;html=1;" parent="eaBZAdcV0L5VPkEbtosH-30" source="eaBZAdcV0L5VPkEbtosH-31" target="eaBZAdcV0L5VPkEbtosH-34" edge="1">
          <mxGeometry relative="1" as="geometry">
            <mxPoint x="1110" y="125" as="sourcePoint" />
            <mxPoint x="1110" y="45.000000000000114" as="targetPoint" />
          </mxGeometry>
        </mxCell>
        <mxCell id="eaBZAdcV0L5VPkEbtosH-34" value="" style="ellipse;whiteSpace=wrap;html=1;aspect=fixed;fillColor=#f8cecc;strokeColor=#b85450;" parent="eaBZAdcV0L5VPkEbtosH-30" vertex="1">
          <mxGeometry x="1085" y="25" width="50" height="50" as="geometry" />
        </mxCell>
        <mxCell id="eaBZAdcV0L5VPkEbtosH-35" value="N1" style="swimlane;horizontal=0;whiteSpace=wrap;html=1;" parent="1" vertex="1">
          <mxGeometry x="50" y="200" width="2150" height="300" as="geometry" />
        </mxCell>
        <mxCell id="eaBZAdcV0L5VPkEbtosH-52" style="edgeStyle=orthogonalEdgeStyle;rounded=0;orthogonalLoop=1;jettySize=auto;html=1;entryX=0.5;entryY=0;entryDx=0;entryDy=0;" parent="1" source="eaBZAdcV0L5VPkEbtosH-31" target="eaBZAdcV0L5VPkEbtosH-41" edge="1">
          <mxGeometry relative="1" as="geometry" />
        </mxCell>
        <mxCell id="eaBZAdcV0L5VPkEbtosH-54" value="&lt;font style=&quot;&quot;&gt;N2&lt;/font&gt;" style="swimlane;horizontal=0;whiteSpace=wrap;html=1;startSize=23;" parent="1" vertex="1">
          <mxGeometry x="50" y="500" width="2150" height="280" as="geometry" />
        </mxCell>
        <mxCell id="eaBZAdcV0L5VPkEbtosH-55" value="" style="edgeStyle=orthogonalEdgeStyle;rounded=0;orthogonalLoop=1;jettySize=auto;html=1;" parent="eaBZAdcV0L5VPkEbtosH-54" source="eaBZAdcV0L5VPkEbtosH-57" target="eaBZAdcV0L5VPkEbtosH-60" edge="1">
          <mxGeometry relative="1" as="geometry" />
        </mxCell>
        <mxCell id="eaBZAdcV0L5VPkEbtosH-56" value="" style="edgeStyle=orthogonalEdgeStyle;rounded=0;orthogonalLoop=1;jettySize=auto;html=1;" parent="eaBZAdcV0L5VPkEbtosH-54" source="eaBZAdcV0L5VPkEbtosH-57" target="eaBZAdcV0L5VPkEbtosH-62" edge="1">
          <mxGeometry relative="1" as="geometry" />
        </mxCell>
        <mxCell id="eaBZAdcV0L5VPkEbtosH-57" value="" style="rhombus;whiteSpace=wrap;html=1;fillColor=#fff2cc;strokeColor=#d6b656;" parent="eaBZAdcV0L5VPkEbtosH-54" vertex="1">
          <mxGeometry x="120" y="40" width="80" height="80" as="geometry" />
        </mxCell>
        <mxCell id="eaBZAdcV0L5VPkEbtosH-58" value="Categorizado corretamente?" style="text;html=1;align=center;verticalAlign=middle;whiteSpace=wrap;rounded=0;" parent="eaBZAdcV0L5VPkEbtosH-54" vertex="1">
          <mxGeometry x="50" y="30" width="80" height="40" as="geometry" />
        </mxCell>
        <mxCell id="eaBZAdcV0L5VPkEbtosH-59" value="" style="edgeStyle=orthogonalEdgeStyle;rounded=0;orthogonalLoop=1;jettySize=auto;html=1;" parent="eaBZAdcV0L5VPkEbtosH-54" source="eaBZAdcV0L5VPkEbtosH-60" target="eaBZAdcV0L5VPkEbtosH-65" edge="1">
          <mxGeometry relative="1" as="geometry" />
        </mxCell>
        <mxCell id="eaBZAdcV0L5VPkEbtosH-60" value="" style="rhombus;whiteSpace=wrap;html=1;fillColor=#fff2cc;strokeColor=#d6b656;" parent="eaBZAdcV0L5VPkEbtosH-54" vertex="1">
          <mxGeometry x="260" y="40" width="80" height="80" as="geometry" />
        </mxCell>
        <mxCell id="eaBZAdcV0L5VPkEbtosH-61" style="edgeStyle=orthogonalEdgeStyle;rounded=0;orthogonalLoop=1;jettySize=auto;html=1;entryX=0.5;entryY=1;entryDx=0;entryDy=0;" parent="eaBZAdcV0L5VPkEbtosH-54" source="eaBZAdcV0L5VPkEbtosH-62" target="eaBZAdcV0L5VPkEbtosH-60" edge="1">
          <mxGeometry relative="1" as="geometry" />
        </mxCell>
        <mxCell id="eaBZAdcV0L5VPkEbtosH-62" value="Recategorizar / Repriorizar" style="whiteSpace=wrap;html=1;fillColor=#dae8fc;strokeColor=#6c8ebf;" parent="eaBZAdcV0L5VPkEbtosH-54" vertex="1">
          <mxGeometry x="100" y="160" width="120" height="60" as="geometry" />
        </mxCell>
        <mxCell id="eaBZAdcV0L5VPkEbtosH-63" value="Sim" style="text;html=1;align=center;verticalAlign=middle;whiteSpace=wrap;rounded=0;" parent="eaBZAdcV0L5VPkEbtosH-54" vertex="1">
          <mxGeometry x="200" y="50" width="60" height="30" as="geometry" />
        </mxCell>
        <mxCell id="eaBZAdcV0L5VPkEbtosH-64" value="Não" style="text;html=1;align=center;verticalAlign=middle;whiteSpace=wrap;rounded=0;" parent="eaBZAdcV0L5VPkEbtosH-54" vertex="1">
          <mxGeometry x="150" y="120" width="60" height="30" as="geometry" />
        </mxCell>
        <mxCell id="eaBZAdcV0L5VPkEbtosH-65" value="Investigar Base de Conhecimento" style="whiteSpace=wrap;html=1;fillColor=#dae8fc;strokeColor=#6c8ebf;" parent="eaBZAdcV0L5VPkEbtosH-54" vertex="1">
          <mxGeometry x="400" y="50" width="120" height="60" as="geometry" />
        </mxCell>
        <mxCell id="eaBZAdcV0L5VPkEbtosH-68" value="N3" style="swimlane;horizontal=0;whiteSpace=wrap;html=1;" parent="1" vertex="1">
          <mxGeometry x="50" y="780" width="2150" height="440" as="geometry" />
        </mxCell>
        <mxCell id="eaBZAdcV0L5VPkEbtosH-69" style="edgeStyle=orthogonalEdgeStyle;rounded=0;orthogonalLoop=1;jettySize=auto;html=1;" parent="1" source="eaBZAdcV0L5VPkEbtosH-36" target="eaBZAdcV0L5VPkEbtosH-57" edge="1">
          <mxGeometry relative="1" as="geometry">
            <Array as="points">
              <mxPoint x="1360" y="510" />
              <mxPoint x="210" y="510" />
            </Array>
          </mxGeometry>
        </mxCell>
        <mxCell id="eaBZAdcV0L5VPkEbtosH-70" value="&lt;font style=&quot;font-size: 14px;&quot;&gt;Gerenciamento de Problema&lt;/font&gt;" style="swimlane;horizontal=0;whiteSpace=wrap;html=1;" parent="1" vertex="1">
          <mxGeometry x="30" y="-40" width="2170" height="1260" as="geometry" />
        </mxCell>
        <mxCell id="eaBZAdcV0L5VPkEbtosH-71" value="Procedimento de solução encontrada?" style="text;html=1;align=center;verticalAlign=middle;whiteSpace=wrap;rounded=0;" parent="eaBZAdcV0L5VPkEbtosH-70" vertex="1">
          <mxGeometry x="1050" y="490" width="70" height="40" as="geometry" />
        </mxCell>
        <mxCell id="eaBZAdcV0L5VPkEbtosH-73" value="" style="edgeStyle=orthogonalEdgeStyle;rounded=0;orthogonalLoop=1;jettySize=auto;html=1;" parent="eaBZAdcV0L5VPkEbtosH-70" source="eaBZAdcV0L5VPkEbtosH-74" target="eaBZAdcV0L5VPkEbtosH-77" edge="1">
          <mxGeometry relative="1" as="geometry" />
        </mxCell>
        <mxCell id="eaBZAdcV0L5VPkEbtosH-74" value="Testar possíveis soluções em ambiente controlado" style="whiteSpace=wrap;html=1;fillColor=#dae8fc;strokeColor=#6c8ebf;" parent="eaBZAdcV0L5VPkEbtosH-70" vertex="1">
          <mxGeometry x="610" y="590" width="120" height="60" as="geometry" />
        </mxCell>
        <mxCell id="eaBZAdcV0L5VPkEbtosH-75" value="" style="edgeStyle=orthogonalEdgeStyle;rounded=0;orthogonalLoop=1;jettySize=auto;html=1;" parent="eaBZAdcV0L5VPkEbtosH-70" source="eaBZAdcV0L5VPkEbtosH-77" target="eaBZAdcV0L5VPkEbtosH-80" edge="1">
          <mxGeometry relative="1" as="geometry" />
        </mxCell>
        <mxCell id="eaBZAdcV0L5VPkEbtosH-76" value="" style="edgeStyle=orthogonalEdgeStyle;rounded=0;orthogonalLoop=1;jettySize=auto;html=1;" parent="eaBZAdcV0L5VPkEbtosH-70" source="eaBZAdcV0L5VPkEbtosH-77" target="eaBZAdcV0L5VPkEbtosH-82" edge="1">
          <mxGeometry relative="1" as="geometry" />
        </mxCell>
        <mxCell id="eaBZAdcV0L5VPkEbtosH-77" value="" style="rhombus;whiteSpace=wrap;html=1;fillColor=#fff2cc;strokeColor=#d6b656;" parent="eaBZAdcV0L5VPkEbtosH-70" vertex="1">
          <mxGeometry x="830" y="580" width="80" height="80" as="geometry" />
        </mxCell>
        <mxCell id="eaBZAdcV0L5VPkEbtosH-78" value="Solução funcionou no teste?" style="text;html=1;align=center;verticalAlign=middle;whiteSpace=wrap;rounded=0;" parent="eaBZAdcV0L5VPkEbtosH-70" vertex="1">
          <mxGeometry x="780" y="570" width="80" height="40" as="geometry" />
        </mxCell>
        <mxCell id="eaBZAdcV0L5VPkEbtosH-79" value="" style="edgeStyle=orthogonalEdgeStyle;rounded=0;orthogonalLoop=1;jettySize=auto;html=1;" parent="eaBZAdcV0L5VPkEbtosH-70" source="eaBZAdcV0L5VPkEbtosH-80" target="eaBZAdcV0L5VPkEbtosH-100" edge="1">
          <mxGeometry relative="1" as="geometry">
            <Array as="points">
              <mxPoint x="870" y="840" />
              <mxPoint x="150" y="840" />
            </Array>
          </mxGeometry>
        </mxCell>
        <mxCell id="eaBZAdcV0L5VPkEbtosH-80" value="Encaminhar para N3" style="whiteSpace=wrap;html=1;fillColor=#dae8fc;strokeColor=#6c8ebf;" parent="eaBZAdcV0L5VPkEbtosH-70" vertex="1">
          <mxGeometry x="810" y="750" width="120" height="60" as="geometry" />
        </mxCell>
        <mxCell id="eaBZAdcV0L5VPkEbtosH-81" value="" style="edgeStyle=orthogonalEdgeStyle;rounded=0;orthogonalLoop=1;jettySize=auto;html=1;exitX=1;exitY=0.5;exitDx=0;exitDy=0;" parent="eaBZAdcV0L5VPkEbtosH-70" source="eaBZAdcV0L5VPkEbtosH-82" target="eaBZAdcV0L5VPkEbtosH-86" edge="1">
          <mxGeometry relative="1" as="geometry">
            <mxPoint x="1070" y="619.9999999999995" as="sourcePoint" />
          </mxGeometry>
        </mxCell>
        <mxCell id="eaBZAdcV0L5VPkEbtosH-82" value="Aplicar solução em produção" style="whiteSpace=wrap;html=1;fillColor=#dae8fc;strokeColor=#6c8ebf;" parent="eaBZAdcV0L5VPkEbtosH-70" vertex="1">
          <mxGeometry x="970" y="590" width="120" height="60" as="geometry" />
        </mxCell>
        <mxCell id="eaBZAdcV0L5VPkEbtosH-83" value="Sim" style="text;html=1;align=center;verticalAlign=middle;whiteSpace=wrap;rounded=0;" parent="eaBZAdcV0L5VPkEbtosH-70" vertex="1">
          <mxGeometry x="910" y="595" width="60" height="30" as="geometry" />
        </mxCell>
        <mxCell id="eaBZAdcV0L5VPkEbtosH-84" value="Não" style="text;html=1;align=center;verticalAlign=middle;whiteSpace=wrap;rounded=0;" parent="eaBZAdcV0L5VPkEbtosH-70" vertex="1">
          <mxGeometry x="860" y="650" width="60" height="30" as="geometry" />
        </mxCell>
        <mxCell id="eaBZAdcV0L5VPkEbtosH-85" value="" style="edgeStyle=orthogonalEdgeStyle;rounded=0;orthogonalLoop=1;jettySize=auto;html=1;exitX=1;exitY=0.5;exitDx=0;exitDy=0;" parent="eaBZAdcV0L5VPkEbtosH-70" source="eaBZAdcV0L5VPkEbtosH-86" target="eaBZAdcV0L5VPkEbtosH-89" edge="1">
          <mxGeometry relative="1" as="geometry">
            <mxPoint x="1260" y="619.9999999999995" as="sourcePoint" />
          </mxGeometry>
        </mxCell>
        <mxCell id="eaBZAdcV0L5VPkEbtosH-86" value="Registrar ações executadas" style="whiteSpace=wrap;html=1;fillColor=#dae8fc;strokeColor=#6c8ebf;" parent="eaBZAdcV0L5VPkEbtosH-70" vertex="1">
          <mxGeometry x="1150" y="590" width="120" height="60" as="geometry" />
        </mxCell>
        <mxCell id="eaBZAdcV0L5VPkEbtosH-87" value="" style="edgeStyle=orthogonalEdgeStyle;rounded=0;orthogonalLoop=1;jettySize=auto;html=1;exitX=1;exitY=0.5;exitDx=0;exitDy=0;" parent="eaBZAdcV0L5VPkEbtosH-70" source="eaBZAdcV0L5VPkEbtosH-89" edge="1">
          <mxGeometry relative="1" as="geometry">
            <mxPoint x="1390" y="619.9999999999995" as="sourcePoint" />
            <mxPoint x="1480" y="619.9999999999995" as="targetPoint" />
          </mxGeometry>
        </mxCell>
        <mxCell id="eaBZAdcV0L5VPkEbtosH-88" style="edgeStyle=orthogonalEdgeStyle;rounded=0;orthogonalLoop=1;jettySize=auto;html=1;entryX=1;entryY=0.5;entryDx=0;entryDy=0;" parent="eaBZAdcV0L5VPkEbtosH-70" source="eaBZAdcV0L5VPkEbtosH-89" target="eaBZAdcV0L5VPkEbtosH-80" edge="1">
          <mxGeometry relative="1" as="geometry">
            <Array as="points">
              <mxPoint x="1390" y="780" />
            </Array>
          </mxGeometry>
        </mxCell>
        <mxCell id="eaBZAdcV0L5VPkEbtosH-89" value="" style="rhombus;whiteSpace=wrap;html=1;fillColor=#fff2cc;strokeColor=#d6b656;" parent="eaBZAdcV0L5VPkEbtosH-70" vertex="1">
          <mxGeometry x="1350" y="580" width="80" height="80" as="geometry" />
        </mxCell>
        <mxCell id="eaBZAdcV0L5VPkEbtosH-90" value="Solução resolveu o incidente?" style="text;html=1;align=center;verticalAlign=middle;whiteSpace=wrap;rounded=0;" parent="eaBZAdcV0L5VPkEbtosH-70" vertex="1">
          <mxGeometry x="1290" y="570" width="70" height="40" as="geometry" />
        </mxCell>
        <mxCell id="eaBZAdcV0L5VPkEbtosH-91" value="" style="edgeStyle=orthogonalEdgeStyle;rounded=0;orthogonalLoop=1;jettySize=auto;html=1;exitX=1;exitY=0.5;exitDx=0;exitDy=0;" parent="eaBZAdcV0L5VPkEbtosH-70" target="eaBZAdcV0L5VPkEbtosH-93" edge="1">
          <mxGeometry relative="1" as="geometry">
            <mxPoint x="1600" y="619.9999999999995" as="sourcePoint" />
          </mxGeometry>
        </mxCell>
        <mxCell id="eaBZAdcV0L5VPkEbtosH-92" value="" style="edgeStyle=orthogonalEdgeStyle;rounded=0;orthogonalLoop=1;jettySize=auto;html=1;" parent="eaBZAdcV0L5VPkEbtosH-70" source="eaBZAdcV0L5VPkEbtosH-93" target="eaBZAdcV0L5VPkEbtosH-97" edge="1">
          <mxGeometry relative="1" as="geometry" />
        </mxCell>
        <mxCell id="eaBZAdcV0L5VPkEbtosH-93" value="Atualizar Base de Conhecimento" style="whiteSpace=wrap;html=1;fillColor=#dae8fc;strokeColor=#6c8ebf;" parent="eaBZAdcV0L5VPkEbtosH-70" vertex="1">
          <mxGeometry x="1660" y="590" width="134" height="60" as="geometry" />
        </mxCell>
        <mxCell id="eaBZAdcV0L5VPkEbtosH-94" value="Sim" style="text;html=1;align=center;verticalAlign=middle;whiteSpace=wrap;rounded=0;" parent="eaBZAdcV0L5VPkEbtosH-70" vertex="1">
          <mxGeometry x="1420" y="590" width="60" height="30" as="geometry" />
        </mxCell>
        <mxCell id="eaBZAdcV0L5VPkEbtosH-95" value="Não" style="text;html=1;align=center;verticalAlign=middle;whiteSpace=wrap;rounded=0;" parent="eaBZAdcV0L5VPkEbtosH-70" vertex="1">
          <mxGeometry x="1380" y="660" width="60" height="30" as="geometry" />
        </mxCell>
        <mxCell id="eaBZAdcV0L5VPkEbtosH-96" style="edgeStyle=orthogonalEdgeStyle;rounded=0;orthogonalLoop=1;jettySize=auto;html=1;entryX=0;entryY=0.5;entryDx=0;entryDy=0;" parent="eaBZAdcV0L5VPkEbtosH-70" source="eaBZAdcV0L5VPkEbtosH-97" target="eaBZAdcV0L5VPkEbtosH-98" edge="1">
          <mxGeometry relative="1" as="geometry" />
        </mxCell>
        <mxCell id="eaBZAdcV0L5VPkEbtosH-97" value="Fechar o chamado" style="whiteSpace=wrap;html=1;fillColor=#dae8fc;strokeColor=#6c8ebf;" parent="eaBZAdcV0L5VPkEbtosH-70" vertex="1">
          <mxGeometry x="1850" y="590" width="120" height="60" as="geometry" />
        </mxCell>
        <mxCell id="eaBZAdcV0L5VPkEbtosH-98" value="" style="ellipse;whiteSpace=wrap;html=1;aspect=fixed;fillColor=#f8cecc;strokeColor=#b85450;" parent="eaBZAdcV0L5VPkEbtosH-70" vertex="1">
          <mxGeometry x="2050" y="595" width="50" height="50" as="geometry" />
        </mxCell>
        <mxCell id="eaBZAdcV0L5VPkEbtosH-99" value="" style="edgeStyle=orthogonalEdgeStyle;rounded=0;orthogonalLoop=1;jettySize=auto;html=1;" parent="eaBZAdcV0L5VPkEbtosH-70" source="eaBZAdcV0L5VPkEbtosH-100" target="eaBZAdcV0L5VPkEbtosH-103" edge="1">
          <mxGeometry relative="1" as="geometry" />
        </mxCell>
        <mxCell id="eaBZAdcV0L5VPkEbtosH-100" value="Verificar o que foi realizado anteriormente" style="whiteSpace=wrap;html=1;fillColor=#dae8fc;strokeColor=#6c8ebf;" parent="eaBZAdcV0L5VPkEbtosH-70" vertex="1">
          <mxGeometry x="90" y="920" width="120" height="60" as="geometry" />
        </mxCell>
        <mxCell id="eaBZAdcV0L5VPkEbtosH-102" style="edgeStyle=orthogonalEdgeStyle;rounded=0;orthogonalLoop=1;jettySize=auto;html=1;entryX=0;entryY=0.5;entryDx=0;entryDy=0;" parent="eaBZAdcV0L5VPkEbtosH-70" source="eaBZAdcV0L5VPkEbtosH-103" target="eaBZAdcV0L5VPkEbtosH-110" edge="1">
          <mxGeometry relative="1" as="geometry">
            <mxPoint x="440" y="949.9999999999995" as="targetPoint" />
          </mxGeometry>
        </mxCell>
        <mxCell id="eaBZAdcV0L5VPkEbtosH-103" value="" style="rhombus;whiteSpace=wrap;html=1;fillColor=#fff2cc;strokeColor=#d6b656;" parent="eaBZAdcV0L5VPkEbtosH-70" vertex="1">
          <mxGeometry x="310" y="910" width="80" height="80" as="geometry" />
        </mxCell>
        <mxCell id="eaBZAdcV0L5VPkEbtosH-104" value="Não" style="text;html=1;align=center;verticalAlign=middle;whiteSpace=wrap;rounded=0;" parent="eaBZAdcV0L5VPkEbtosH-70" vertex="1">
          <mxGeometry x="1130" y="180" width="60" height="30" as="geometry" />
        </mxCell>
        <mxCell id="eaBZAdcV0L5VPkEbtosH-105" value="Sim" style="text;html=1;align=center;verticalAlign=middle;whiteSpace=wrap;rounded=0;" parent="eaBZAdcV0L5VPkEbtosH-70" vertex="1">
          <mxGeometry x="1120" y="90" width="60" height="30" as="geometry" />
        </mxCell>
        <mxCell id="eaBZAdcV0L5VPkEbtosH-106" value="Possíveis resoluções foram realizadas corretamente?" style="text;html=1;align=center;verticalAlign=middle;whiteSpace=wrap;rounded=0;" parent="eaBZAdcV0L5VPkEbtosH-70" vertex="1">
          <mxGeometry x="230" y="880" width="110" height="60" as="geometry" />
        </mxCell>
        <mxCell id="eaBZAdcV0L5VPkEbtosH-107" value="Sim" style="text;html=1;align=center;verticalAlign=middle;whiteSpace=wrap;rounded=0;" parent="eaBZAdcV0L5VPkEbtosH-70" vertex="1">
          <mxGeometry x="560" y="1160" width="60" height="30" as="geometry" />
        </mxCell>
        <mxCell id="eaBZAdcV0L5VPkEbtosH-108" value="Não" style="text;html=1;align=center;verticalAlign=middle;whiteSpace=wrap;rounded=0;" parent="eaBZAdcV0L5VPkEbtosH-70" vertex="1">
          <mxGeometry x="340" y="990" width="60" height="30" as="geometry" />
        </mxCell>
        <mxCell id="eaBZAdcV0L5VPkEbtosH-109" value="" style="edgeStyle=orthogonalEdgeStyle;rounded=0;orthogonalLoop=1;jettySize=auto;html=1;" parent="eaBZAdcV0L5VPkEbtosH-70" source="eaBZAdcV0L5VPkEbtosH-110" target="eaBZAdcV0L5VPkEbtosH-115" edge="1">
          <mxGeometry relative="1" as="geometry" />
        </mxCell>
        <mxCell id="eaBZAdcV0L5VPkEbtosH-110" value="Averiguar possibilidade de Implementação" style="whiteSpace=wrap;html=1;fillColor=#dae8fc;strokeColor=#6c8ebf;" parent="eaBZAdcV0L5VPkEbtosH-70" vertex="1">
          <mxGeometry x="460" y="920" width="120" height="60" as="geometry" />
        </mxCell>
        <mxCell id="eaBZAdcV0L5VPkEbtosH-111" value="Incidente&lt;div&gt;resolvido?&lt;/div&gt;" style="text;html=1;align=center;verticalAlign=middle;whiteSpace=wrap;rounded=0;" parent="eaBZAdcV0L5VPkEbtosH-70" vertex="1">
          <mxGeometry x="430" y="1130" width="80" height="40" as="geometry" />
        </mxCell>
        <mxCell id="eaBZAdcV0L5VPkEbtosH-112" value="Não" style="text;html=1;align=center;verticalAlign=middle;whiteSpace=wrap;rounded=0;" parent="eaBZAdcV0L5VPkEbtosH-70" vertex="1">
          <mxGeometry x="510" y="1050" width="60" height="30" as="geometry" />
        </mxCell>
        <mxCell id="eaBZAdcV0L5VPkEbtosH-113" value="" style="edgeStyle=orthogonalEdgeStyle;rounded=0;orthogonalLoop=1;jettySize=auto;html=1;" parent="eaBZAdcV0L5VPkEbtosH-70" source="eaBZAdcV0L5VPkEbtosH-115" target="eaBZAdcV0L5VPkEbtosH-118" edge="1">
          <mxGeometry relative="1" as="geometry" />
        </mxCell>
        <mxCell id="eaBZAdcV0L5VPkEbtosH-114" value="" style="edgeStyle=orthogonalEdgeStyle;rounded=0;orthogonalLoop=1;jettySize=auto;html=1;" parent="eaBZAdcV0L5VPkEbtosH-70" source="eaBZAdcV0L5VPkEbtosH-115" target="eaBZAdcV0L5VPkEbtosH-120" edge="1">
          <mxGeometry relative="1" as="geometry" />
        </mxCell>
        <mxCell id="eaBZAdcV0L5VPkEbtosH-115" value="" style="rhombus;whiteSpace=wrap;html=1;fillColor=#fff2cc;strokeColor=#d6b656;" parent="eaBZAdcV0L5VPkEbtosH-70" vertex="1">
          <mxGeometry x="680" y="910" width="80" height="80" as="geometry" />
        </mxCell>
        <mxCell id="eaBZAdcV0L5VPkEbtosH-116" value="&lt;div&gt;Há possibilidade?&lt;/div&gt;" style="text;html=1;align=center;verticalAlign=middle;whiteSpace=wrap;rounded=0;" parent="eaBZAdcV0L5VPkEbtosH-70" vertex="1">
          <mxGeometry x="610" y="870" width="90" height="70" as="geometry" />
        </mxCell>
        <mxCell id="eaBZAdcV0L5VPkEbtosH-117" style="edgeStyle=orthogonalEdgeStyle;rounded=0;orthogonalLoop=1;jettySize=auto;html=1;entryX=0;entryY=0.5;entryDx=0;entryDy=0;" parent="eaBZAdcV0L5VPkEbtosH-70" source="eaBZAdcV0L5VPkEbtosH-118" target="eaBZAdcV0L5VPkEbtosH-123" edge="1">
          <mxGeometry relative="1" as="geometry" />
        </mxCell>
        <mxCell id="eaBZAdcV0L5VPkEbtosH-118" value="Iniciar processo de mudança" style="whiteSpace=wrap;html=1;fillColor=#dae8fc;strokeColor=#6c8ebf;" parent="eaBZAdcV0L5VPkEbtosH-70" vertex="1">
          <mxGeometry x="830" y="920" width="120" height="60" as="geometry" />
        </mxCell>
        <mxCell id="eaBZAdcV0L5VPkEbtosH-119" style="edgeStyle=orthogonalEdgeStyle;rounded=0;orthogonalLoop=1;jettySize=auto;html=1;entryX=0.5;entryY=1;entryDx=0;entryDy=0;" parent="eaBZAdcV0L5VPkEbtosH-70" source="eaBZAdcV0L5VPkEbtosH-120" target="eaBZAdcV0L5VPkEbtosH-118" edge="1">
          <mxGeometry relative="1" as="geometry" />
        </mxCell>
        <mxCell id="eaBZAdcV0L5VPkEbtosH-120" value="Contornar impacto com solução temporária" style="whiteSpace=wrap;html=1;fillColor=#dae8fc;strokeColor=#6c8ebf;" parent="eaBZAdcV0L5VPkEbtosH-70" vertex="1">
          <mxGeometry x="660" y="1040" width="120" height="60" as="geometry" />
        </mxCell>
        <mxCell id="eaBZAdcV0L5VPkEbtosH-121" value="Sim" style="text;html=1;align=center;verticalAlign=middle;whiteSpace=wrap;rounded=0;" parent="eaBZAdcV0L5VPkEbtosH-70" vertex="1">
          <mxGeometry x="390" y="920" width="60" height="30" as="geometry" />
        </mxCell>
        <mxCell id="eaBZAdcV0L5VPkEbtosH-122" value="" style="edgeStyle=orthogonalEdgeStyle;rounded=0;orthogonalLoop=1;jettySize=auto;html=1;" parent="eaBZAdcV0L5VPkEbtosH-70" source="eaBZAdcV0L5VPkEbtosH-123" target="eaBZAdcV0L5VPkEbtosH-128" edge="1">
          <mxGeometry relative="1" as="geometry" />
        </mxCell>
        <mxCell id="eaBZAdcV0L5VPkEbtosH-123" value="Solicitar aprovação de mudança" style="whiteSpace=wrap;html=1;fillColor=#dae8fc;strokeColor=#6c8ebf;" parent="eaBZAdcV0L5VPkEbtosH-70" vertex="1">
          <mxGeometry x="1040" y="920" width="120" height="60" as="geometry" />
        </mxCell>
        <mxCell id="eaBZAdcV0L5VPkEbtosH-124" value="Sim" style="text;html=1;align=center;verticalAlign=middle;whiteSpace=wrap;rounded=0;" parent="eaBZAdcV0L5VPkEbtosH-70" vertex="1">
          <mxGeometry x="770" y="920" width="60" height="30" as="geometry" />
        </mxCell>
        <mxCell id="eaBZAdcV0L5VPkEbtosH-126" value="" style="edgeStyle=orthogonalEdgeStyle;rounded=0;orthogonalLoop=1;jettySize=auto;html=1;" parent="eaBZAdcV0L5VPkEbtosH-70" source="eaBZAdcV0L5VPkEbtosH-128" target="eaBZAdcV0L5VPkEbtosH-131" edge="1">
          <mxGeometry relative="1" as="geometry" />
        </mxCell>
        <mxCell id="eaBZAdcV0L5VPkEbtosH-127" value="" style="edgeStyle=orthogonalEdgeStyle;rounded=0;orthogonalLoop=1;jettySize=auto;html=1;" parent="eaBZAdcV0L5VPkEbtosH-70" source="eaBZAdcV0L5VPkEbtosH-128" target="eaBZAdcV0L5VPkEbtosH-139" edge="1">
          <mxGeometry relative="1" as="geometry" />
        </mxCell>
        <mxCell id="eaBZAdcV0L5VPkEbtosH-128" value="" style="rhombus;whiteSpace=wrap;html=1;fillColor=#fff2cc;strokeColor=#d6b656;" parent="eaBZAdcV0L5VPkEbtosH-70" vertex="1">
          <mxGeometry x="1260" y="910" width="80" height="80" as="geometry" />
        </mxCell>
        <mxCell id="eaBZAdcV0L5VPkEbtosH-129" value="Mudança aprovada?" style="text;html=1;align=center;verticalAlign=middle;whiteSpace=wrap;rounded=0;" parent="eaBZAdcV0L5VPkEbtosH-70" vertex="1">
          <mxGeometry x="1211" y="900" width="70" height="40" as="geometry" />
        </mxCell>
        <mxCell id="eaBZAdcV0L5VPkEbtosH-130" value="" style="edgeStyle=orthogonalEdgeStyle;rounded=0;orthogonalLoop=1;jettySize=auto;html=1;" parent="eaBZAdcV0L5VPkEbtosH-70" source="eaBZAdcV0L5VPkEbtosH-131" edge="1">
          <mxGeometry relative="1" as="geometry">
            <mxPoint x="1580" y="949.9999999999995" as="targetPoint" />
          </mxGeometry>
        </mxCell>
        <mxCell id="eaBZAdcV0L5VPkEbtosH-131" value="Implementar mudança para solução do incidente" style="whiteSpace=wrap;html=1;fillColor=#dae8fc;strokeColor=#6c8ebf;" parent="eaBZAdcV0L5VPkEbtosH-70" vertex="1">
          <mxGeometry x="1400" y="920" width="120" height="60" as="geometry" />
        </mxCell>
        <mxCell id="eaBZAdcV0L5VPkEbtosH-132" value="" style="edgeStyle=orthogonalEdgeStyle;rounded=0;orthogonalLoop=1;jettySize=auto;html=1;" parent="eaBZAdcV0L5VPkEbtosH-70" target="eaBZAdcV0L5VPkEbtosH-134" edge="1">
          <mxGeometry relative="1" as="geometry">
            <mxPoint x="1700" y="949.9999999999995" as="sourcePoint" />
          </mxGeometry>
        </mxCell>
        <mxCell id="eaBZAdcV0L5VPkEbtosH-133" value="" style="edgeStyle=orthogonalEdgeStyle;rounded=0;orthogonalLoop=1;jettySize=auto;html=1;" parent="eaBZAdcV0L5VPkEbtosH-70" source="eaBZAdcV0L5VPkEbtosH-134" target="eaBZAdcV0L5VPkEbtosH-136" edge="1">
          <mxGeometry relative="1" as="geometry" />
        </mxCell>
        <mxCell id="eaBZAdcV0L5VPkEbtosH-134" value="Atualizar Base de Conhecimento" style="whiteSpace=wrap;html=1;fillColor=#dae8fc;strokeColor=#6c8ebf;" parent="eaBZAdcV0L5VPkEbtosH-70" vertex="1">
          <mxGeometry x="1750" y="920" width="120" height="60" as="geometry" />
        </mxCell>
        <mxCell id="eaBZAdcV0L5VPkEbtosH-135" style="edgeStyle=orthogonalEdgeStyle;rounded=0;orthogonalLoop=1;jettySize=auto;html=1;" parent="eaBZAdcV0L5VPkEbtosH-70" source="eaBZAdcV0L5VPkEbtosH-136" target="eaBZAdcV0L5VPkEbtosH-145" edge="1">
          <mxGeometry relative="1" as="geometry" />
        </mxCell>
        <mxCell id="eaBZAdcV0L5VPkEbtosH-136" value="Fechar o chamado" style="whiteSpace=wrap;html=1;fillColor=#dae8fc;strokeColor=#6c8ebf;" parent="eaBZAdcV0L5VPkEbtosH-70" vertex="1">
          <mxGeometry x="1930" y="920" width="120" height="60" as="geometry" />
        </mxCell>
        <mxCell id="eaBZAdcV0L5VPkEbtosH-137" value="Sim" style="text;html=1;align=center;verticalAlign=middle;whiteSpace=wrap;rounded=0;" parent="eaBZAdcV0L5VPkEbtosH-70" vertex="1">
          <mxGeometry x="1340" y="920" width="60" height="30" as="geometry" />
        </mxCell>
        <mxCell id="eaBZAdcV0L5VPkEbtosH-138" value="" style="edgeStyle=orthogonalEdgeStyle;rounded=0;orthogonalLoop=1;jettySize=auto;html=1;" parent="eaBZAdcV0L5VPkEbtosH-70" source="eaBZAdcV0L5VPkEbtosH-139" target="eaBZAdcV0L5VPkEbtosH-143" edge="1">
          <mxGeometry relative="1" as="geometry" />
        </mxCell>
        <mxCell id="eaBZAdcV0L5VPkEbtosH-139" value="Avaliar outras soluções possíveis" style="whiteSpace=wrap;html=1;fillColor=#dae8fc;strokeColor=#6c8ebf;" parent="eaBZAdcV0L5VPkEbtosH-70" vertex="1">
          <mxGeometry x="1240" y="1060" width="120" height="60" as="geometry" />
        </mxCell>
        <mxCell id="eaBZAdcV0L5VPkEbtosH-140" value="Não" style="text;html=1;align=center;verticalAlign=middle;whiteSpace=wrap;rounded=0;" parent="eaBZAdcV0L5VPkEbtosH-70" vertex="1">
          <mxGeometry x="1290" y="1010" width="60" height="30" as="geometry" />
        </mxCell>
        <mxCell id="eaBZAdcV0L5VPkEbtosH-141" style="edgeStyle=orthogonalEdgeStyle;rounded=0;orthogonalLoop=1;jettySize=auto;html=1;entryX=0.5;entryY=1;entryDx=0;entryDy=0;" parent="eaBZAdcV0L5VPkEbtosH-70" source="eaBZAdcV0L5VPkEbtosH-143" target="eaBZAdcV0L5VPkEbtosH-123" edge="1">
          <mxGeometry relative="1" as="geometry">
            <Array as="points">
              <mxPoint x="1480" y="1160" />
              <mxPoint x="1100" y="1160" />
            </Array>
          </mxGeometry>
        </mxCell>
        <mxCell id="eaBZAdcV0L5VPkEbtosH-142" style="edgeStyle=orthogonalEdgeStyle;rounded=0;orthogonalLoop=1;jettySize=auto;html=1;entryX=0;entryY=0.5;entryDx=0;entryDy=0;" parent="eaBZAdcV0L5VPkEbtosH-70" source="eaBZAdcV0L5VPkEbtosH-143" edge="1">
          <mxGeometry relative="1" as="geometry">
            <mxPoint x="1590" y="1089.9999999999995" as="targetPoint" />
          </mxGeometry>
        </mxCell>
        <mxCell id="eaBZAdcV0L5VPkEbtosH-143" value="" style="rhombus;whiteSpace=wrap;html=1;fillColor=#fff2cc;strokeColor=#d6b656;" parent="eaBZAdcV0L5VPkEbtosH-70" vertex="1">
          <mxGeometry x="1440" y="1050" width="80" height="80" as="geometry" />
        </mxCell>
        <mxCell id="eaBZAdcV0L5VPkEbtosH-144" value="Possível solução encontrada?" style="text;html=1;align=center;verticalAlign=middle;whiteSpace=wrap;rounded=0;" parent="eaBZAdcV0L5VPkEbtosH-70" vertex="1">
          <mxGeometry x="1380" y="1040" width="70" height="40" as="geometry" />
        </mxCell>
        <mxCell id="eaBZAdcV0L5VPkEbtosH-145" value="" style="ellipse;whiteSpace=wrap;html=1;aspect=fixed;fillColor=#f8cecc;strokeColor=#b85450;" parent="eaBZAdcV0L5VPkEbtosH-70" vertex="1">
          <mxGeometry x="2110" y="925" width="50" height="50" as="geometry" />
        </mxCell>
        <mxCell id="eaBZAdcV0L5VPkEbtosH-146" value="Documentar solução" style="shape=document;whiteSpace=wrap;html=1;boundedLbl=1;fillColor=#e1d5e7;strokeColor=#9673a6;" parent="eaBZAdcV0L5VPkEbtosH-70" vertex="1">
          <mxGeometry x="1580" y="910" width="120" height="80" as="geometry" />
        </mxCell>
        <mxCell id="eaBZAdcV0L5VPkEbtosH-147" value="Documentar solução" style="shape=document;whiteSpace=wrap;html=1;boundedLbl=1;fillColor=#e1d5e7;strokeColor=#9673a6;" parent="eaBZAdcV0L5VPkEbtosH-70" vertex="1">
          <mxGeometry x="1480" y="585" width="120" height="80" as="geometry" />
        </mxCell>
        <mxCell id="eaBZAdcV0L5VPkEbtosH-148" value="Não" style="text;html=1;align=center;verticalAlign=middle;whiteSpace=wrap;rounded=0;" parent="eaBZAdcV0L5VPkEbtosH-70" vertex="1">
          <mxGeometry x="1520" y="1055" width="60" height="30" as="geometry" />
        </mxCell>
        <mxCell id="eaBZAdcV0L5VPkEbtosH-149" value="Sim" style="text;html=1;align=center;verticalAlign=middle;whiteSpace=wrap;rounded=0;" parent="eaBZAdcV0L5VPkEbtosH-70" vertex="1">
          <mxGeometry x="1420" y="1130" width="60" height="30" as="geometry" />
        </mxCell>
        <mxCell id="eaBZAdcV0L5VPkEbtosH-150" value="Escalar para fornecedor" style="whiteSpace=wrap;html=1;fillColor=#dae8fc;strokeColor=#6c8ebf;" parent="eaBZAdcV0L5VPkEbtosH-70" vertex="1">
          <mxGeometry x="1590" y="1060" width="120" height="60" as="geometry" />
        </mxCell>
        <mxCell id="eaBZAdcV0L5VPkEbtosH-151" value="" style="shape=cylinder3;whiteSpace=wrap;html=1;boundedLbl=1;backgroundOutline=1;size=15;fillColor=#f5f5f5;fontColor=#333333;strokeColor=#666666;" parent="eaBZAdcV0L5VPkEbtosH-70" vertex="1">
          <mxGeometry x="1708" y="710" width="38" height="60" as="geometry" />
        </mxCell>
        <mxCell id="eaBZAdcV0L5VPkEbtosH-152" style="edgeStyle=orthogonalEdgeStyle;rounded=0;orthogonalLoop=1;jettySize=auto;html=1;entryX=0.5;entryY=0;entryDx=0;entryDy=0;entryPerimeter=0;" parent="eaBZAdcV0L5VPkEbtosH-70" source="eaBZAdcV0L5VPkEbtosH-93" target="eaBZAdcV0L5VPkEbtosH-151" edge="1">
          <mxGeometry relative="1" as="geometry" />
        </mxCell>
        <mxCell id="eaBZAdcV0L5VPkEbtosH-153" value="" style="shape=cylinder3;whiteSpace=wrap;html=1;boundedLbl=1;backgroundOutline=1;size=15;fillColor=#f5f5f5;fontColor=#333333;strokeColor=#666666;" parent="eaBZAdcV0L5VPkEbtosH-70" vertex="1">
          <mxGeometry x="1791" y="1010" width="38" height="60" as="geometry" />
        </mxCell>
        <mxCell id="eaBZAdcV0L5VPkEbtosH-154" style="edgeStyle=orthogonalEdgeStyle;rounded=0;orthogonalLoop=1;jettySize=auto;html=1;entryX=0.5;entryY=0;entryDx=0;entryDy=0;entryPerimeter=0;" parent="eaBZAdcV0L5VPkEbtosH-70" source="eaBZAdcV0L5VPkEbtosH-134" target="eaBZAdcV0L5VPkEbtosH-153" edge="1">
          <mxGeometry relative="1" as="geometry" />
        </mxCell>
        <mxCell id="eaBZAdcV0L5VPkEbtosH-38" value="" style="shape=cylinder3;whiteSpace=wrap;html=1;boundedLbl=1;backgroundOutline=1;size=15;fillColor=#f5f5f5;fontColor=#333333;strokeColor=#666666;" parent="eaBZAdcV0L5VPkEbtosH-70" vertex="1">
          <mxGeometry x="381.04" y="470" width="38" height="60" as="geometry" />
        </mxCell>
        <mxCell id="eaBZAdcV0L5VPkEbtosH-5" value="" style="edgeStyle=orthogonalEdgeStyle;rounded=0;orthogonalLoop=1;jettySize=auto;html=1;" parent="eaBZAdcV0L5VPkEbtosH-70" source="eaBZAdcV0L5VPkEbtosH-6" target="eaBZAdcV0L5VPkEbtosH-8" edge="1">
          <mxGeometry relative="1" as="geometry" />
        </mxCell>
        <mxCell id="eaBZAdcV0L5VPkEbtosH-7" value="" style="edgeStyle=orthogonalEdgeStyle;rounded=0;orthogonalLoop=1;jettySize=auto;html=1;" parent="eaBZAdcV0L5VPkEbtosH-70" edge="1">
          <mxGeometry relative="1" as="geometry">
            <mxPoint x="609.96" y="350" as="sourcePoint" />
            <mxPoint x="699.96" y="310" as="targetPoint" />
            <Array as="points">
              <mxPoint x="609.96" y="310" />
            </Array>
          </mxGeometry>
        </mxCell>
        <mxCell id="eaBZAdcV0L5VPkEbtosH-8" value="" style="rhombus;whiteSpace=wrap;html=1;fillColor=#fff2cc;strokeColor=#d6b656;" parent="eaBZAdcV0L5VPkEbtosH-70" vertex="1">
          <mxGeometry x="569.96" y="340" width="80" height="80" as="geometry" />
        </mxCell>
        <mxCell id="eaBZAdcV0L5VPkEbtosH-9" value="Há conhecimento compativel para este incidente?&amp;nbsp;" style="text;html=1;align=center;verticalAlign=middle;whiteSpace=wrap;rounded=0;" parent="eaBZAdcV0L5VPkEbtosH-70" vertex="1">
          <mxGeometry x="489.96000000000004" y="320" width="96" height="50" as="geometry" />
        </mxCell>
        <mxCell id="eaBZAdcV0L5VPkEbtosH-10" value="" style="edgeStyle=orthogonalEdgeStyle;rounded=0;orthogonalLoop=1;jettySize=auto;html=1;entryX=0;entryY=0.5;entryDx=0;entryDy=0;" parent="eaBZAdcV0L5VPkEbtosH-70" target="eaBZAdcV0L5VPkEbtosH-14" edge="1">
          <mxGeometry relative="1" as="geometry">
            <mxPoint x="609.96" y="420" as="sourcePoint" />
            <mxPoint x="729.96" y="440" as="targetPoint" />
            <Array as="points">
              <mxPoint x="609.96" y="440" />
            </Array>
          </mxGeometry>
        </mxCell>
        <mxCell id="eaBZAdcV0L5VPkEbtosH-11" value="" style="edgeStyle=orthogonalEdgeStyle;rounded=0;orthogonalLoop=1;jettySize=auto;html=1;entryX=0;entryY=0.5;entryDx=0;entryDy=0;" parent="eaBZAdcV0L5VPkEbtosH-70" source="eaBZAdcV0L5VPkEbtosH-12" target="eaBZAdcV0L5VPkEbtosH-20" edge="1">
          <mxGeometry relative="1" as="geometry">
            <mxPoint x="919.96" y="310" as="targetPoint" />
          </mxGeometry>
        </mxCell>
        <mxCell id="eaBZAdcV0L5VPkEbtosH-12" value="Verificar se a situação conhecida é aplicável ao incidente" style="rounded=0;whiteSpace=wrap;html=1;fillColor=#dae8fc;strokeColor=#6c8ebf;" parent="eaBZAdcV0L5VPkEbtosH-70" vertex="1">
          <mxGeometry x="699.96" y="280" width="120" height="60" as="geometry" />
        </mxCell>
        <mxCell id="eaBZAdcV0L5VPkEbtosH-13" value="" style="edgeStyle=orthogonalEdgeStyle;rounded=0;orthogonalLoop=1;jettySize=auto;html=1;" parent="eaBZAdcV0L5VPkEbtosH-70" source="eaBZAdcV0L5VPkEbtosH-14" target="eaBZAdcV0L5VPkEbtosH-48" edge="1">
          <mxGeometry relative="1" as="geometry" />
        </mxCell>
        <mxCell id="eaBZAdcV0L5VPkEbtosH-14" value="Investigar soluções" style="rounded=0;whiteSpace=wrap;html=1;fillColor=#dae8fc;strokeColor=#6c8ebf;" parent="eaBZAdcV0L5VPkEbtosH-70" vertex="1">
          <mxGeometry x="919.96" y="410" width="120" height="60" as="geometry" />
        </mxCell>
        <mxCell id="eaBZAdcV0L5VPkEbtosH-15" value="Sim" style="text;html=1;align=center;verticalAlign=middle;whiteSpace=wrap;rounded=0;" parent="eaBZAdcV0L5VPkEbtosH-70" vertex="1">
          <mxGeometry x="599.96" y="280" width="60" height="30" as="geometry" />
        </mxCell>
        <mxCell id="eaBZAdcV0L5VPkEbtosH-16" value="Não" style="text;html=1;align=center;verticalAlign=middle;whiteSpace=wrap;rounded=0;" parent="eaBZAdcV0L5VPkEbtosH-70" vertex="1">
          <mxGeometry x="929.96" y="340" width="60" height="30" as="geometry" />
        </mxCell>
        <mxCell id="eaBZAdcV0L5VPkEbtosH-18" value="" style="edgeStyle=orthogonalEdgeStyle;rounded=0;orthogonalLoop=1;jettySize=auto;html=1;" parent="eaBZAdcV0L5VPkEbtosH-70" source="eaBZAdcV0L5VPkEbtosH-20" edge="1">
          <mxGeometry relative="1" as="geometry">
            <mxPoint x="1069.96" y="310" as="targetPoint" />
          </mxGeometry>
        </mxCell>
        <mxCell id="eaBZAdcV0L5VPkEbtosH-19" value="" style="edgeStyle=orthogonalEdgeStyle;rounded=0;orthogonalLoop=1;jettySize=auto;html=1;" parent="eaBZAdcV0L5VPkEbtosH-70" source="eaBZAdcV0L5VPkEbtosH-20" target="eaBZAdcV0L5VPkEbtosH-14" edge="1">
          <mxGeometry relative="1" as="geometry" />
        </mxCell>
        <mxCell id="eaBZAdcV0L5VPkEbtosH-20" value="" style="rhombus;whiteSpace=wrap;html=1;rounded=0;fillColor=#fff2cc;strokeColor=#d6b656;" parent="eaBZAdcV0L5VPkEbtosH-70" vertex="1">
          <mxGeometry x="939.96" y="270" width="80" height="80" as="geometry" />
        </mxCell>
        <mxCell id="eaBZAdcV0L5VPkEbtosH-21" value="Conhecimento aplicável?" style="text;html=1;align=center;verticalAlign=middle;whiteSpace=wrap;rounded=0;" parent="eaBZAdcV0L5VPkEbtosH-70" vertex="1">
          <mxGeometry x="869.96" y="270" width="90" height="40" as="geometry" />
        </mxCell>
        <mxCell id="eaBZAdcV0L5VPkEbtosH-23" value="" style="edgeStyle=orthogonalEdgeStyle;rounded=0;orthogonalLoop=1;jettySize=auto;html=1;" parent="eaBZAdcV0L5VPkEbtosH-70" source="eaBZAdcV0L5VPkEbtosH-24" target="eaBZAdcV0L5VPkEbtosH-41" edge="1">
          <mxGeometry relative="1" as="geometry" />
        </mxCell>
        <mxCell id="eaBZAdcV0L5VPkEbtosH-24" value="Realizar procedimento para solução do incidente" style="whiteSpace=wrap;html=1;rounded=0;fillColor=#dae8fc;strokeColor=#6c8ebf;" parent="eaBZAdcV0L5VPkEbtosH-70" vertex="1">
          <mxGeometry x="1069.96" y="280" width="120" height="60" as="geometry" />
        </mxCell>
        <mxCell id="eaBZAdcV0L5VPkEbtosH-25" value="Sim" style="text;html=1;align=center;verticalAlign=middle;whiteSpace=wrap;rounded=0;" parent="eaBZAdcV0L5VPkEbtosH-70" vertex="1">
          <mxGeometry x="1009.96" y="280" width="60" height="30" as="geometry" />
        </mxCell>
        <mxCell id="eaBZAdcV0L5VPkEbtosH-26" value="Não" style="text;html=1;align=center;verticalAlign=middle;whiteSpace=wrap;rounded=0;" parent="eaBZAdcV0L5VPkEbtosH-70" vertex="1">
          <mxGeometry x="599.96" y="440" width="60" height="30" as="geometry" />
        </mxCell>
        <mxCell id="eaBZAdcV0L5VPkEbtosH-36" value="Encaminhar para N2" style="rounded=0;whiteSpace=wrap;html=1;fillColor=#dae8fc;strokeColor=#6c8ebf;" parent="eaBZAdcV0L5VPkEbtosH-70" vertex="1">
          <mxGeometry x="1269.96" y="410" width="120" height="60" as="geometry" />
        </mxCell>
        <mxCell id="eaBZAdcV0L5VPkEbtosH-39" style="edgeStyle=orthogonalEdgeStyle;rounded=0;orthogonalLoop=1;jettySize=auto;html=1;entryX=0.5;entryY=0;entryDx=0;entryDy=0;" parent="eaBZAdcV0L5VPkEbtosH-70" source="eaBZAdcV0L5VPkEbtosH-41" target="eaBZAdcV0L5VPkEbtosH-36" edge="1">
          <mxGeometry relative="1" as="geometry" />
        </mxCell>
        <mxCell id="eaBZAdcV0L5VPkEbtosH-40" value="" style="edgeStyle=orthogonalEdgeStyle;rounded=0;orthogonalLoop=1;jettySize=auto;html=1;" parent="eaBZAdcV0L5VPkEbtosH-70" source="eaBZAdcV0L5VPkEbtosH-41" target="eaBZAdcV0L5VPkEbtosH-45" edge="1">
          <mxGeometry relative="1" as="geometry" />
        </mxCell>
        <mxCell id="eaBZAdcV0L5VPkEbtosH-41" value="" style="rhombus;whiteSpace=wrap;html=1;rounded=0;fillColor=#fff2cc;strokeColor=#d6b656;" parent="eaBZAdcV0L5VPkEbtosH-70" vertex="1">
          <mxGeometry x="1289.96" y="270" width="80" height="80" as="geometry" />
        </mxCell>
        <mxCell id="eaBZAdcV0L5VPkEbtosH-42" value="Não" style="text;html=1;align=center;verticalAlign=middle;whiteSpace=wrap;rounded=0;" parent="eaBZAdcV0L5VPkEbtosH-70" vertex="1">
          <mxGeometry x="1319.96" y="340" width="60" height="30" as="geometry" />
        </mxCell>
        <mxCell id="eaBZAdcV0L5VPkEbtosH-44" value="" style="edgeStyle=orthogonalEdgeStyle;rounded=0;orthogonalLoop=1;jettySize=auto;html=1;" parent="eaBZAdcV0L5VPkEbtosH-70" source="eaBZAdcV0L5VPkEbtosH-45" target="eaBZAdcV0L5VPkEbtosH-50" edge="1">
          <mxGeometry relative="1" as="geometry" />
        </mxCell>
        <mxCell id="eaBZAdcV0L5VPkEbtosH-45" value="Atualizar Base de Conhecimento" style="whiteSpace=wrap;html=1;rounded=0;fillColor=#dae8fc;strokeColor=#6c8ebf;" parent="eaBZAdcV0L5VPkEbtosH-70" vertex="1">
          <mxGeometry x="1449.96" y="280" width="120" height="60" as="geometry" />
        </mxCell>
        <mxCell id="eaBZAdcV0L5VPkEbtosH-46" style="edgeStyle=orthogonalEdgeStyle;rounded=0;orthogonalLoop=1;jettySize=auto;html=1;" parent="eaBZAdcV0L5VPkEbtosH-70" source="eaBZAdcV0L5VPkEbtosH-48" edge="1">
          <mxGeometry relative="1" as="geometry">
            <mxPoint x="1129.96" y="340" as="targetPoint" />
          </mxGeometry>
        </mxCell>
        <mxCell id="eaBZAdcV0L5VPkEbtosH-47" style="edgeStyle=orthogonalEdgeStyle;rounded=0;orthogonalLoop=1;jettySize=auto;html=1;entryX=0;entryY=0.5;entryDx=0;entryDy=0;" parent="eaBZAdcV0L5VPkEbtosH-70" source="eaBZAdcV0L5VPkEbtosH-48" target="eaBZAdcV0L5VPkEbtosH-36" edge="1">
          <mxGeometry relative="1" as="geometry" />
        </mxCell>
        <mxCell id="eaBZAdcV0L5VPkEbtosH-48" value="" style="rhombus;whiteSpace=wrap;html=1;fillColor=#fff2cc;strokeColor=#d6b656;rounded=0;" parent="eaBZAdcV0L5VPkEbtosH-70" vertex="1">
          <mxGeometry x="1089.96" y="400" width="80" height="80" as="geometry" />
        </mxCell>
        <mxCell id="eaBZAdcV0L5VPkEbtosH-49" value="Sim" style="text;html=1;align=center;verticalAlign=middle;whiteSpace=wrap;rounded=0;" parent="eaBZAdcV0L5VPkEbtosH-70" vertex="1">
          <mxGeometry x="1119.96" y="340" width="60" height="30" as="geometry" />
        </mxCell>
        <mxCell id="eaBZAdcV0L5VPkEbtosH-50" value="Fechar o chamado" style="whiteSpace=wrap;html=1;fillColor=#dae8fc;strokeColor=#6c8ebf;rounded=0;" parent="eaBZAdcV0L5VPkEbtosH-70" vertex="1">
          <mxGeometry x="1649.96" y="280" width="120" height="60" as="geometry" />
        </mxCell>
        <mxCell id="eaBZAdcV0L5VPkEbtosH-72" value="Não" style="text;html=1;align=center;verticalAlign=middle;whiteSpace=wrap;rounded=0;" parent="eaBZAdcV0L5VPkEbtosH-70" vertex="1">
          <mxGeometry x="1180.96" y="410" width="60" height="30" as="geometry" />
        </mxCell>
        <mxCell id="eaBZAdcV0L5VPkEbtosH-101" value="Sim" style="text;html=1;align=center;verticalAlign=middle;whiteSpace=wrap;rounded=0;" parent="eaBZAdcV0L5VPkEbtosH-70" vertex="1">
          <mxGeometry x="1379.96" y="280" width="60" height="30" as="geometry" />
        </mxCell>
        <mxCell id="eaBZAdcV0L5VPkEbtosH-155" value="" style="shape=cylinder3;whiteSpace=wrap;html=1;boundedLbl=1;backgroundOutline=1;size=15;fillColor=#f5f5f5;fontColor=#333333;strokeColor=#666666;" parent="eaBZAdcV0L5VPkEbtosH-70" vertex="1">
          <mxGeometry x="1489.96" y="370" width="38" height="60" as="geometry" />
        </mxCell>
        <mxCell id="eaBZAdcV0L5VPkEbtosH-6" value="Verificar na Base de Conhecimento" style="whiteSpace=wrap;html=1;fillColor=#dae8fc;strokeColor=#6c8ebf;" parent="eaBZAdcV0L5VPkEbtosH-70" vertex="1">
          <mxGeometry x="340" y="350" width="120" height="60" as="geometry" />
        </mxCell>
        <mxCell id="eaBZAdcV0L5VPkEbtosH-53" style="edgeStyle=orthogonalEdgeStyle;rounded=0;orthogonalLoop=1;jettySize=auto;html=1;entryX=0.5;entryY=1;entryDx=0;entryDy=0;exitX=0.5;exitY=0;exitDx=0;exitDy=0;exitPerimeter=0;" parent="eaBZAdcV0L5VPkEbtosH-70" source="eaBZAdcV0L5VPkEbtosH-38" target="eaBZAdcV0L5VPkEbtosH-6" edge="1">
          <mxGeometry relative="1" as="geometry">
            <mxPoint x="399.99999999999994" y="450" as="sourcePoint" />
          </mxGeometry>
        </mxCell>
        <mxCell id="eaBZAdcV0L5VPkEbtosH-159" value="" style="edgeStyle=orthogonalEdgeStyle;rounded=0;orthogonalLoop=1;jettySize=auto;html=1;" parent="eaBZAdcV0L5VPkEbtosH-70" source="eaBZAdcV0L5VPkEbtosH-50" edge="1">
          <mxGeometry relative="1" as="geometry">
            <mxPoint x="1839.96" y="310" as="targetPoint" />
          </mxGeometry>
        </mxCell>
        <mxCell id="eaBZAdcV0L5VPkEbtosH-160" value="" style="ellipse;whiteSpace=wrap;html=1;aspect=fixed;fillColor=#f8cecc;strokeColor=#b85450;" parent="eaBZAdcV0L5VPkEbtosH-70" vertex="1">
          <mxGeometry x="1839.96" y="285" width="50" height="50" as="geometry" />
        </mxCell>
        <mxCell id="eaBZAdcV0L5VPkEbtosH-171" style="edgeStyle=orthogonalEdgeStyle;rounded=0;orthogonalLoop=1;jettySize=auto;html=1;" parent="eaBZAdcV0L5VPkEbtosH-70" source="eaBZAdcV0L5VPkEbtosH-45" target="eaBZAdcV0L5VPkEbtosH-155" edge="1">
          <mxGeometry relative="1" as="geometry" />
        </mxCell>
        <mxCell id="eaBZAdcV0L5VPkEbtosH-67" value="" style="shape=cylinder3;whiteSpace=wrap;html=1;boundedLbl=1;backgroundOutline=1;size=15;fillColor=#f5f5f5;fontColor=#333333;strokeColor=#666666;" parent="eaBZAdcV0L5VPkEbtosH-70" vertex="1">
          <mxGeometry x="461" y="690" width="38" height="60" as="geometry" />
        </mxCell>
        <mxCell id="S1epC4yuxMinBEulNaxe-3" style="edgeStyle=orthogonalEdgeStyle;rounded=0;orthogonalLoop=1;jettySize=auto;html=1;entryX=0;entryY=0.5;entryDx=0;entryDy=0;" parent="eaBZAdcV0L5VPkEbtosH-70" source="S1epC4yuxMinBEulNaxe-1" target="eaBZAdcV0L5VPkEbtosH-6" edge="1">
          <mxGeometry relative="1" as="geometry" />
        </mxCell>
        <mxCell id="S1epC4yuxMinBEulNaxe-1" value="Identificar e Reconhecer" style="whiteSpace=wrap;html=1;fillColor=#dae8fc;strokeColor=#6c8ebf;" parent="eaBZAdcV0L5VPkEbtosH-70" vertex="1">
          <mxGeometry x="160" y="350" width="120" height="60" as="geometry" />
        </mxCell>
        <mxCell id="S1epC4yuxMinBEulNaxe-5" value="Não" style="text;html=1;align=center;verticalAlign=middle;whiteSpace=wrap;rounded=0;" parent="eaBZAdcV0L5VPkEbtosH-70" vertex="1">
          <mxGeometry x="710" y="990" width="60" height="30" as="geometry" />
        </mxCell>
        <mxCell id="eaBZAdcV0L5VPkEbtosH-161" value="" style="edgeStyle=orthogonalEdgeStyle;rounded=0;orthogonalLoop=1;jettySize=auto;html=1;" parent="1" source="eaBZAdcV0L5VPkEbtosH-65" target="eaBZAdcV0L5VPkEbtosH-74" edge="1">
          <mxGeometry relative="1" as="geometry" />
        </mxCell>
        <mxCell id="eaBZAdcV0L5VPkEbtosH-162" value="&lt;div&gt;&lt;font style=&quot;font-size: 14px;&quot;&gt;&lt;br&gt;&lt;/font&gt;&lt;/div&gt;&lt;div&gt;&lt;font style=&quot;font-size: 14px;&quot;&gt;GRUPO 11 - Monibeer&lt;/font&gt;&lt;/div&gt;&lt;font style=&quot;font-size: 14px;&quot;&gt;Beatriz Perez, Emanuelle Silva, Fernando Gutierrez,&lt;/font&gt;&lt;div&gt;&lt;font style=&quot;font-size: 14px;&quot;&gt;João Lucas Reis,&lt;/font&gt;&lt;/div&gt;&lt;div&gt;&lt;font style=&quot;font-size: 14px;&quot;&gt;João Victor Lira,&lt;/font&gt;&lt;/div&gt;&lt;div&gt;&lt;font style=&quot;font-size: 14px;&quot;&gt;Nathalli Ribeiro&lt;br&gt;&lt;/font&gt;&lt;div&gt;&lt;font style=&quot;font-size: 14px;&quot;&gt;&amp;nbsp;&lt;/font&gt;&lt;/div&gt;&lt;/div&gt;" style="text;html=1;align=center;verticalAlign=middle;whiteSpace=wrap;rounded=0;" parent="1" vertex="1">
          <mxGeometry x="30" y="-210" width="150" height="130" as="geometry" />
        </mxCell>
        <mxCell id="eaBZAdcV0L5VPkEbtosH-163" value="Testar possíveis soluções" style="whiteSpace=wrap;html=1;fillColor=#dae8fc;strokeColor=#6c8ebf;" parent="1" vertex="1">
          <mxGeometry x="320" y="1120" width="120" height="60" as="geometry" />
        </mxCell>
        <mxCell id="eaBZAdcV0L5VPkEbtosH-164" value="" style="edgeStyle=orthogonalEdgeStyle;rounded=0;orthogonalLoop=1;jettySize=auto;html=1;" parent="1" source="eaBZAdcV0L5VPkEbtosH-163" target="eaBZAdcV0L5VPkEbtosH-166" edge="1">
          <mxGeometry relative="1" as="geometry" />
        </mxCell>
        <mxCell id="eaBZAdcV0L5VPkEbtosH-165" style="edgeStyle=orthogonalEdgeStyle;rounded=0;orthogonalLoop=1;jettySize=auto;html=1;entryX=0.5;entryY=1;entryDx=0;entryDy=0;" parent="1" source="eaBZAdcV0L5VPkEbtosH-166" target="eaBZAdcV0L5VPkEbtosH-136" edge="1">
          <mxGeometry relative="1" as="geometry" />
        </mxCell>
        <mxCell id="eaBZAdcV0L5VPkEbtosH-166" value="" style="rhombus;whiteSpace=wrap;html=1;fillColor=#fff2cc;strokeColor=#d6b656;" parent="1" vertex="1">
          <mxGeometry x="510" y="1110" width="80" height="80" as="geometry" />
        </mxCell>
        <mxCell id="eaBZAdcV0L5VPkEbtosH-167" value="" style="edgeStyle=orthogonalEdgeStyle;rounded=0;orthogonalLoop=1;jettySize=auto;html=1;" parent="1" source="eaBZAdcV0L5VPkEbtosH-103" target="eaBZAdcV0L5VPkEbtosH-163" edge="1">
          <mxGeometry relative="1" as="geometry" />
        </mxCell>
        <mxCell id="eaBZAdcV0L5VPkEbtosH-168" style="edgeStyle=orthogonalEdgeStyle;rounded=0;orthogonalLoop=1;jettySize=auto;html=1;entryX=0.5;entryY=1;entryDx=0;entryDy=0;" parent="1" source="eaBZAdcV0L5VPkEbtosH-166" target="eaBZAdcV0L5VPkEbtosH-110" edge="1">
          <mxGeometry relative="1" as="geometry" />
        </mxCell>
        <mxCell id="eaBZAdcV0L5VPkEbtosH-169" value="Contato com o fornecedor" style="shape=process;whiteSpace=wrap;html=1;backgroundOutline=1;fillColor=#ffe6cc;strokeColor=#d79b00;" parent="1" vertex="1">
          <mxGeometry x="1620" y="1240" width="120" height="60" as="geometry" />
        </mxCell>
        <mxCell id="eaBZAdcV0L5VPkEbtosH-170" style="edgeStyle=orthogonalEdgeStyle;rounded=0;orthogonalLoop=1;jettySize=auto;html=1;entryX=0.5;entryY=0;entryDx=0;entryDy=0;" parent="1" source="eaBZAdcV0L5VPkEbtosH-150" target="eaBZAdcV0L5VPkEbtosH-169" edge="1">
          <mxGeometry relative="1" as="geometry" />
        </mxCell>
        <mxCell id="eaBZAdcV0L5VPkEbtosH-172" value="&lt;font style=&quot;font-size: 30px;&quot;&gt;FLUXOGRAMA - INCIDENTE&lt;/font&gt;" style="text;html=1;align=center;verticalAlign=middle;resizable=0;points=[];autosize=1;strokeColor=none;fillColor=none;fontStyle=1" parent="1" vertex="1">
          <mxGeometry x="250" y="-170" width="420" height="50" as="geometry" />
        </mxCell>
        <mxCell id="eaBZAdcV0L5VPkEbtosH-66" style="edgeStyle=orthogonalEdgeStyle;rounded=0;orthogonalLoop=1;jettySize=auto;html=1;" parent="1" source="eaBZAdcV0L5VPkEbtosH-67" target="eaBZAdcV0L5VPkEbtosH-65" edge="1">
          <mxGeometry relative="1" as="geometry" />
        </mxCell>
      </root>
    </mxGraphModel>
  </diagram>
</mxfile>
